<mxfile host="app.diagrams.net" modified="2024-07-22T17:37:22.096Z" agent="Mozilla/5.0 (Windows NT 10.0; Win64; x64; rv:109.0) Gecko/20100101 Firefox/115.0" version="24.7.1" etag="d9aYM2LQR_CfwBpBWz9n" type="github">
  <diagram name="Page-1" id="hE7675z-raPYVtsK9edr">
    <mxGraphModel>
      <root>
        <mxCell id="0" />
        <mxCell id="1" parent="0" />
      </root>
    </mxGraphModel>
  </diagram>
</mxfile>
